<?xml version="1.0" encoding="UTF-8" standalone="no"?>
<svg
   height="225.30mm"
   viewBox="0.0 0.0 161.90 225.30"
   width="161.90mm"
   version="1.1"
   id="svg43"
   sodipodi:docname="case.svg"
   inkscape:version="1.1.1 (eb90963e84, 2021-10-02)"
   xmlns:inkscape="http://www.inkscape.org/namespaces/inkscape"
   xmlns:sodipodi="http://sodipodi.sourceforge.net/DTD/sodipodi-0.dtd"
   xmlns="http://www.w3.org/2000/svg"
   xmlns:svg="http://www.w3.org/2000/svg"
   xmlns:rdf="http://www.w3.org/1999/02/22-rdf-syntax-ns#"
   xmlns:cc="http://creativecommons.org/ns#"
   xmlns:dc="http://purl.org/dc/elements/1.1/">
  <defs
     id="defs47" />
  <sodipodi:namedview
     id="namedview45"
     pagecolor="#ffffff"
     bordercolor="#666666"
     borderopacity="1.0"
     inkscape:pageshadow="2"
     inkscape:pageopacity="0.0"
     inkscape:pagecheckerboard="0"
     inkscape:document-units="mm"
     showgrid="false"
     inkscape:zoom="4.1008655"
     inkscape:cx="439.17559"
     inkscape:cy="191.78878"
     inkscape:window-width="3372"
     inkscape:window-height="1376"
     inkscape:window-x="0"
     inkscape:window-y="0"
     inkscape:window-maximized="1"
     inkscape:current-layer="svg43" />
  <!--
ClosedBox - Fully closed box


This box is more of a building block than a finished item.
Use a vector graphics program (like Inkscape) to add holes or adjust the base
plate.

See BasedBox for variant with a base.


Created with Boxes.py (https://festi.info/boxes.py)
Creation date: 2021-12-19 20:43:35
Command line (remove spaces between dashes): boxes ClosedBox - -FingerJoint_angle=90.0 - -FingerJoint_style=rectangular - -FingerJoint_surroundingspaces=2.0 - -FingerJoint_edge_width=1.0 - -FingerJoint_finger=2.0 - -FingerJoint_play=0.0 - -FingerJoint_space=2.0 - -FingerJoint_width=1.0 - -x=70 - -y=50 - -h=70 - -outside=0 - -outside=1 - -thickness=3.0 - -format=svg - -tabs=0.0 - -debug=0 - -labels=0 - -labels=1 - -reference=100 - -burn=0.1
Url: http://www.festi.info/ClosedBox?FingerJoint_angle=90.0&FingerJoint_style=rectangular&FingerJoint_surroundingspaces=2.0&FingerJoint_edge_width=1.0&FingerJoint_finger=2.0&FingerJoint_play=0.0&FingerJoint_space=2.0&FingerJoint_width=1.0&x=70&y=50&h=70&outside=0&outside=1&thickness=3.0&format=svg&tabs=0.0&debug=0&labels=0&labels=1&reference=100&burn=0.1&render=1
SettingsUrl: http://www.festi.info/ClosedBox?FingerJoint_angle=90.0&FingerJoint_style=rectangular&FingerJoint_surroundingspaces=2.0&FingerJoint_edge_width=1.0&FingerJoint_finger=2.0&FingerJoint_play=0.0&FingerJoint_space=2.0&FingerJoint_width=1.0&x=70&y=50&h=70&outside=0&outside=1&thickness=3.0&format=svg&tabs=0.0&debug=0&labels=0&labels=1&reference=100&burn=0.1
-->
  <title
     id="title2">ClosedBox</title>
  <metadata
     id="metadata4">
    <rdf:RDF>
      <cc:Work>
        <dc:title>Box - ClosedBox</dc:title>
        <dc:date>2021-12-19 20:43:35</dc:date>
        <dc:source>http://www.festi.info/ClosedBox?FingerJoint_angle=90.0&amp;FingerJoint_style=rectangular&amp;FingerJoint_surroundingspaces=2.0&amp;FingerJoint_edge_width=1.0&amp;FingerJoint_finger=2.0&amp;FingerJoint_play=0.0&amp;FingerJoint_space=2.0&amp;FingerJoint_width=1.0&amp;x=70&amp;y=50&amp;h=70&amp;outside=0&amp;outside=1&amp;thickness=3.0&amp;format=svg&amp;tabs=0.0&amp;debug=0&amp;labels=0&amp;labels=1&amp;reference=100&amp;burn=0.1&amp;render=1</dc:source>
        <dc:description>Fully closed box

This box is more of a building block than a finished item.
Use a vector graphics program (like Inkscape) to add holes or adjust the base
plate.

See BasedBox for variant with a base.

Created with Boxes.py (https://festi.info/boxes.py)
Command line: boxes ClosedBox --FingerJoint_angle=90.0 --FingerJoint_style=rectangular --FingerJoint_surroundingspaces=2.0 --FingerJoint_edge_width=1.0 --FingerJoint_finger=2.0 --FingerJoint_play=0.0 --FingerJoint_space=2.0 --FingerJoint_width=1.0 --x=70 --y=50 --h=70 --outside=0 --outside=1 --thickness=3.0 --format=svg --tabs=0.0 --debug=0 --labels=0 --labels=1 --reference=100 --burn=0.1
Url: http://www.festi.info/ClosedBox?FingerJoint_angle=90.0&amp;FingerJoint_style=rectangular&amp;FingerJoint_surroundingspaces=2.0&amp;FingerJoint_edge_width=1.0&amp;FingerJoint_finger=2.0&amp;FingerJoint_play=0.0&amp;FingerJoint_space=2.0&amp;FingerJoint_width=1.0&amp;x=70&amp;y=50&amp;h=70&amp;outside=0&amp;outside=1&amp;thickness=3.0&amp;format=svg&amp;tabs=0.0&amp;debug=0&amp;labels=0&amp;labels=1&amp;reference=100&amp;burn=0.1&amp;render=1
SettingsUrl: http://www.festi.info/ClosedBox?FingerJoint_angle=90.0&amp;FingerJoint_style=rectangular&amp;FingerJoint_surroundingspaces=2.0&amp;FingerJoint_edge_width=1.0&amp;FingerJoint_finger=2.0&amp;FingerJoint_play=0.0&amp;FingerJoint_space=2.0&amp;FingerJoint_width=1.0&amp;x=70&amp;y=50&amp;h=70&amp;outside=0&amp;outside=1&amp;thickness=3.0&amp;format=svg&amp;tabs=0.0&amp;debug=0&amp;labels=0&amp;labels=1&amp;reference=100&amp;burn=0.1
</dc:description>
      </cc:Work>
    </rdf:RDF>
  </metadata>
  <g
     id="p-1"
     style="fill:none;stroke-linecap:round;stroke-linejoin:round;stroke:#ff0000;stroke-opacity:1">
    <text
       alignment-baseline="hanging"
       font-size="4px"
       style="font-family:sans-serif;font-weight:normal;font-style:normal;fill:rgb(255, 0, 0);stroke:#ff0000;stroke-opacity:1"
       text-anchor="middle"
       transform="matrix( 1.000 0.000 0.000 1.000 45.100 166.600 )"
       id="text13">Wall 1</text>
    <path
       d="M 13.100 203.600 H 24.100 C 24.155 203.600 24.200 203.555 24.200 203.500 V 200.600 C 24.200 200.500 24.100 200.600 24.200 200.600 H 30.000 C 30.100 200.600 30.000 200.500 30.000 200.600 V 203.500 C 30.000 203.555 30.045 203.600 30.100 203.600 H 36.100 C 36.155 203.600 36.200 203.555 36.200 203.500 V 200.600 C 36.200 200.500 36.100 200.600 36.200 200.600 H 42.000 C 42.100 200.600 42.000 200.500 42.000 200.600 V 203.500 C 42.000 203.555 42.045 203.600 42.100 203.600 H 48.100 C 48.155 203.600 48.200 203.555 48.200 203.500 V 200.600 C 48.200 200.500 48.100 200.600 48.200 200.600 H 54.000 C 54.100 200.600 54.000 200.500 54.000 200.600 V 203.500 C 54.000 203.555 54.045 203.600 54.100 203.600 H 60.100 C 60.155 203.600 60.200 203.555 60.200 203.500 V 200.600 C 60.200 200.500 60.100 200.600 60.200 200.600 H 66.000 C 66.100 200.600 66.000 200.500 66.000 200.600 V 203.500 C 66.000 203.555 66.045 203.600 66.100 203.600 H 77.100 H 80.100 C 80.155 203.600 80.200 203.555 80.200 203.500 V 200.500 V 189.500 C 80.200 189.445 80.155 189.400 80.100 189.400 H 77.200 C 77.100 189.400 77.200 189.500 77.200 189.400 V 183.600 C 77.200 183.500 77.100 183.600 77.200 183.600 H 80.100 C 80.155 183.600 80.200 183.555 80.200 183.500 V 177.500 C 80.200 177.445 80.155 177.400 80.100 177.400 H 77.200 C 77.100 177.400 77.200 177.500 77.200 177.400 V 171.600 C 77.200 171.500 77.100 171.600 77.200 171.600 H 80.100 C 80.155 171.600 80.200 171.555 80.200 171.500 V 165.500 C 80.200 165.445 80.155 165.400 80.100 165.400 H 77.200 C 77.100 165.400 77.200 165.500 77.200 165.400 V 159.600 C 77.200 159.500 77.100 159.600 77.200 159.600 H 80.100 C 80.155 159.600 80.200 159.555 80.200 159.500 V 153.500 C 80.200 153.445 80.155 153.400 80.100 153.400 H 77.200 C 77.100 153.400 77.200 153.500 77.200 153.400 V 147.600 C 77.200 147.500 77.100 147.600 77.200 147.600 H 80.100 C 80.155 147.600 80.200 147.555 80.200 147.500 V 136.500 V 133.500 C 80.200 133.445 80.155 133.400 80.100 133.400 H 77.100 H 66.100 C 66.045 133.400 66.000 133.445 66.000 133.500 V 136.400 C 66.000 136.500 66.100 136.400 66.000 136.400 H 60.200 C 60.100 136.400 60.200 136.500 60.200 136.400 V 133.500 C 60.200 133.445 60.155 133.400 60.100 133.400 H 54.100 C 54.045 133.400 54.000 133.445 54.000 133.500 V 136.400 C 54.000 136.500 54.100 136.400 54.000 136.400 H 48.200 C 48.100 136.400 48.200 136.500 48.200 136.400 V 133.500 C 48.200 133.445 48.155 133.400 48.100 133.400 H 42.100 C 42.045 133.400 42.000 133.445 42.000 133.500 V 136.400 C 42.000 136.500 42.100 136.400 42.000 136.400 H 36.200 C 36.100 136.400 36.200 136.500 36.200 136.400 V 133.500 C 36.200 133.445 36.155 133.400 36.100 133.400 H 30.100 C 30.045 133.400 30.000 133.445 30.000 133.500 V 136.400 C 30.000 136.500 30.100 136.400 30.000 136.400 H 24.200 C 24.100 136.400 24.200 136.500 24.200 136.400 V 133.500 C 24.200 133.445 24.155 133.400 24.100 133.400 H 13.100 H 10.100 C 10.045 133.400 10.000 133.445 10.000 133.500 V 136.500 V 147.500 C 10.000 147.555 10.045 147.600 10.100 147.600 H 13.000 C 13.100 147.600 13.000 147.500 13.000 147.600 V 153.400 C 13.000 153.500 13.100 153.400 13.000 153.400 H 10.100 C 10.045 153.400 10.000 153.445 10.000 153.500 V 159.500 C 10.000 159.555 10.045 159.600 10.100 159.600 H 13.000 C 13.100 159.600 13.000 159.500 13.000 159.600 V 165.400 C 13.000 165.500 13.100 165.400 13.000 165.400 H 10.100 C 10.045 165.400 10.000 165.445 10.000 165.500 V 171.500 C 10.000 171.555 10.045 171.600 10.100 171.600 H 13.000 C 13.100 171.600 13.000 171.500 13.000 171.600 V 177.400 C 13.000 177.500 13.100 177.400 13.000 177.400 H 10.100 C 10.045 177.400 10.000 177.445 10.000 177.500 V 183.500 C 10.000 183.555 10.045 183.600 10.100 183.600 H 13.000 C 13.100 183.600 13.000 183.500 13.000 183.600 V 189.400 C 13.000 189.500 13.100 189.400 13.000 189.400 H 10.100 C 10.045 189.400 10.000 189.445 10.000 189.500 V 200.500 V 203.500 C 10.000 203.555 10.045 203.600 10.100 203.600 H 13.100"
       stroke="rgb(0,0,0)"
       stroke-width="0.20"
       id="path15"
       style="stroke:#ff0000;stroke-opacity:1" />
  </g>
  <g
     id="p-2"
     style="fill:none;stroke-linecap:round;stroke-linejoin:round;stroke:#ff0000;stroke-opacity:1">
    <text
       alignment-baseline="hanging"
       font-size="4px"
       style="font-family:sans-serif;font-weight:normal;font-style:normal;fill:rgb(255, 0, 0);stroke:#ff0000;stroke-opacity:1"
       text-anchor="middle"
       transform="matrix( 1.000 0.000 0.000 1.000 106.800 166.600 )"
       id="text18">Wall 2</text>
    <path
       d="M 84.800 203.600 H 91.800 C 91.855 203.600 91.900 203.555 91.900 203.500 V 200.600 C 91.900 200.500 91.800 200.600 91.900 200.600 H 97.700 C 97.800 200.600 97.700 200.500 97.700 200.600 V 203.500 C 97.700 203.555 97.745 203.600 97.800 203.600 H 103.800 C 103.855 203.600 103.900 203.555 103.900 203.500 V 200.600 C 103.900 200.500 103.800 200.600 103.900 200.600 H 109.700 C 109.800 200.600 109.700 200.500 109.700 200.600 V 203.500 C 109.700 203.555 109.745 203.600 109.800 203.600 H 115.800 C 115.855 203.600 115.900 203.555 115.900 203.500 V 200.600 C 115.900 200.500 115.800 200.600 115.900 200.600 H 121.700 C 121.800 200.600 121.700 200.500 121.700 200.600 V 203.500 C 121.700 203.555 121.745 203.600 121.800 203.600 H 128.800 C 128.855 203.600 128.900 203.555 128.900 203.500 V 200.500 V 189.600 C 128.900 189.500 128.800 189.600 128.900 189.600 H 131.800 C 131.855 189.600 131.900 189.555 131.900 189.500 V 183.500 C 131.900 183.445 131.855 183.400 131.800 183.400 H 128.900 C 128.800 183.400 128.900 183.500 128.900 183.400 V 177.600 C 128.900 177.500 128.800 177.600 128.900 177.600 H 131.800 C 131.855 177.600 131.900 177.555 131.900 177.500 V 171.500 C 131.900 171.445 131.855 171.400 131.800 171.400 H 128.900 C 128.800 171.400 128.900 171.500 128.900 171.400 V 165.600 C 128.900 165.500 128.800 165.600 128.900 165.600 H 131.800 C 131.855 165.600 131.900 165.555 131.900 165.500 V 159.500 C 131.900 159.445 131.855 159.400 131.800 159.400 H 128.900 C 128.800 159.400 128.900 159.500 128.900 159.400 V 153.600 C 128.900 153.500 128.800 153.600 128.900 153.600 H 131.800 C 131.855 153.600 131.900 153.555 131.900 153.500 V 147.500 C 131.900 147.445 131.855 147.400 131.800 147.400 H 128.900 C 128.800 147.400 128.900 147.500 128.900 147.400 V 136.500 V 133.500 C 128.900 133.445 128.855 133.400 128.800 133.400 H 121.800 C 121.745 133.400 121.700 133.445 121.700 133.500 V 136.400 C 121.700 136.500 121.800 136.400 121.700 136.400 H 115.900 C 115.800 136.400 115.900 136.500 115.900 136.400 V 133.500 C 115.900 133.445 115.855 133.400 115.800 133.400 H 109.800 C 109.745 133.400 109.700 133.445 109.700 133.500 V 136.400 C 109.700 136.500 109.800 136.400 109.700 136.400 H 103.900 C 103.800 136.400 103.900 136.500 103.900 136.400 V 133.500 C 103.900 133.445 103.855 133.400 103.800 133.400 H 97.800 C 97.745 133.400 97.700 133.445 97.700 133.500 V 136.400 C 97.700 136.500 97.800 136.400 97.700 136.400 H 91.900 C 91.800 136.400 91.900 136.500 91.900 136.400 V 133.500 C 91.900 133.445 91.855 133.400 91.800 133.400 H 84.800 C 84.745 133.400 84.700 133.445 84.700 133.500 V 136.500 V 147.400 C 84.700 147.500 84.800 147.400 84.700 147.400 H 81.800 C 81.745 147.400 81.700 147.445 81.700 147.500 V 153.500 C 81.700 153.555 81.745 153.600 81.800 153.600 H 84.700 C 84.800 153.600 84.700 153.500 84.700 153.600 V 159.400 C 84.700 159.500 84.800 159.400 84.700 159.400 H 81.800 C 81.745 159.400 81.700 159.445 81.700 159.500 V 165.500 C 81.700 165.555 81.745 165.600 81.800 165.600 H 84.700 C 84.800 165.600 84.700 165.500 84.700 165.600 V 171.400 C 84.700 171.500 84.800 171.400 84.700 171.400 H 81.800 C 81.745 171.400 81.700 171.445 81.700 171.500 V 177.500 C 81.700 177.555 81.745 177.600 81.800 177.600 H 84.700 C 84.800 177.600 84.700 177.500 84.700 177.600 V 183.400 C 84.700 183.500 84.800 183.400 84.700 183.400 H 81.800 C 81.745 183.400 81.700 183.445 81.700 183.500 V 189.500 C 81.700 189.555 81.745 189.600 81.800 189.600 H 84.700 C 84.800 189.600 84.700 189.500 84.700 189.600 V 200.500 V 203.500 C 84.700 203.555 84.745 203.600 84.800 203.600"
       stroke="rgb(0,0,0)"
       stroke-width="0.20"
       id="path20"
       style="stroke:#ff0000;stroke-opacity:1" />
  </g>
  <g
     id="p-3"
     style="fill:none;stroke-linecap:round;stroke-linejoin:round;stroke:#ff0000;stroke-opacity:1">
    <text
       alignment-baseline="hanging"
       font-size="4px"
       style="font-family:sans-serif;font-weight:normal;font-style:normal;fill:rgb(255, 0, 0);stroke:#ff0000;stroke-opacity:1"
       text-anchor="middle"
       transform="matrix( 1.000 0.000 0.000 1.000 106.800 94.900 )"
       id="text23">Wall 4</text>
    <path
       d="M 84.800 131.900 H 91.800 C 91.855 131.900 91.900 131.855 91.900 131.800 V 128.900 C 91.900 128.800 91.800 128.900 91.900 128.900 H 97.700 C 97.800 128.900 97.700 128.800 97.700 128.900 V 131.800 C 97.700 131.855 97.745 131.900 97.800 131.900 H 103.800 C 103.855 131.900 103.900 131.855 103.900 131.800 V 128.900 C 103.900 128.800 103.800 128.900 103.900 128.900 H 109.700 C 109.800 128.900 109.700 128.800 109.700 128.900 V 131.800 C 109.700 131.855 109.745 131.900 109.800 131.900 H 115.800 C 115.855 131.900 115.900 131.855 115.900 131.800 V 128.900 C 115.900 128.800 115.800 128.900 115.900 128.900 H 121.700 C 121.800 128.900 121.700 128.800 121.700 128.900 V 131.800 C 121.700 131.855 121.745 131.900 121.800 131.900 H 128.800 C 128.855 131.900 128.900 131.855 128.900 131.800 V 128.800 V 117.900 C 128.900 117.800 128.800 117.900 128.900 117.900 H 131.800 C 131.855 117.900 131.900 117.855 131.900 117.800 V 111.800 C 131.900 111.745 131.855 111.700 131.800 111.700 H 128.900 C 128.800 111.700 128.900 111.800 128.900 111.700 V 105.900 C 128.900 105.800 128.800 105.900 128.900 105.900 H 131.800 C 131.855 105.900 131.900 105.855 131.900 105.800 V 99.800 C 131.900 99.745 131.855 99.700 131.800 99.700 H 128.900 C 128.800 99.700 128.900 99.800 128.900 99.700 V 93.900 C 128.900 93.800 128.800 93.900 128.900 93.900 H 131.800 C 131.855 93.900 131.900 93.855 131.900 93.800 V 87.800 C 131.900 87.745 131.855 87.700 131.800 87.700 H 128.900 C 128.800 87.700 128.900 87.800 128.900 87.700 V 81.900 C 128.900 81.800 128.800 81.900 128.900 81.900 H 131.800 C 131.855 81.900 131.900 81.855 131.900 81.800 V 75.800 C 131.900 75.745 131.855 75.700 131.800 75.700 H 128.900 C 128.800 75.700 128.900 75.800 128.900 75.700 V 64.800 V 61.800 C 128.900 61.745 128.855 61.700 128.800 61.700 H 121.800 C 121.745 61.700 121.700 61.745 121.700 61.800 V 64.700 C 121.700 64.800 121.800 64.700 121.700 64.700 H 115.900 C 115.800 64.700 115.900 64.800 115.900 64.700 V 61.800 C 115.900 61.745 115.855 61.700 115.800 61.700 H 109.800 C 109.745 61.700 109.700 61.745 109.700 61.800 V 64.700 C 109.700 64.800 109.800 64.700 109.700 64.700 H 103.900 C 103.800 64.700 103.900 64.800 103.900 64.700 V 61.800 C 103.900 61.745 103.855 61.700 103.800 61.700 H 97.800 C 97.745 61.700 97.700 61.745 97.700 61.800 V 64.700 C 97.700 64.800 97.800 64.700 97.700 64.700 H 91.900 C 91.800 64.700 91.900 64.800 91.900 64.700 V 61.800 C 91.900 61.745 91.855 61.700 91.800 61.700 H 84.800 C 84.745 61.700 84.700 61.745 84.700 61.800 V 64.800 V 75.700 C 84.700 75.800 84.800 75.700 84.700 75.700 H 81.800 C 81.745 75.700 81.700 75.745 81.700 75.800 V 81.800 C 81.700 81.855 81.745 81.900 81.800 81.900 H 84.700 C 84.800 81.900 84.700 81.800 84.700 81.900 V 87.700 C 84.700 87.800 84.800 87.700 84.700 87.700 H 81.800 C 81.745 87.700 81.700 87.745 81.700 87.800 V 93.800 C 81.700 93.855 81.745 93.900 81.800 93.900 H 84.700 C 84.800 93.900 84.700 93.800 84.700 93.900 V 99.700 C 84.700 99.800 84.800 99.700 84.700 99.700 H 81.800 C 81.745 99.700 81.700 99.745 81.700 99.800 V 105.800 C 81.700 105.855 81.745 105.900 81.800 105.900 H 84.700 C 84.800 105.900 84.700 105.800 84.700 105.900 V 111.700 C 84.700 111.800 84.800 111.700 84.700 111.700 H 81.800 C 81.745 111.700 81.700 111.745 81.700 111.800 V 117.800 C 81.700 117.855 81.745 117.900 81.800 117.900 H 84.700 C 84.800 117.900 84.700 117.800 84.700 117.900 V 128.800 V 131.800 C 84.700 131.855 84.745 131.900 84.800 131.900"
       stroke="rgb(0,0,0)"
       stroke-width="0.20"
       id="path25"
       style="stroke:#ff0000;stroke-opacity:1" />
  </g>
  <g
     id="p-4"
     style="fill:none;stroke-linecap:round;stroke-linejoin:round;stroke:#ff0000;stroke-opacity:1">
    <text
       alignment-baseline="hanging"
       font-size="4px"
       style="font-family:sans-serif;font-weight:normal;font-style:normal;fill:rgb(255, 0, 0);stroke:#ff0000;stroke-opacity:1"
       text-anchor="middle"
       transform="matrix( 1.000 0.000 0.000 1.000 45.100 94.900 )"
       id="text28">Wall 3</text>
    <path
       d="M 13.100 131.900 H 24.100 C 24.155 131.900 24.200 131.855 24.200 131.800 V 128.900 C 24.200 128.800 24.100 128.900 24.200 128.900 H 30.000 C 30.100 128.900 30.000 128.800 30.000 128.900 V 131.800 C 30.000 131.855 30.045 131.900 30.100 131.900 H 36.100 C 36.155 131.900 36.200 131.855 36.200 131.800 V 128.900 C 36.200 128.800 36.100 128.900 36.200 128.900 H 42.000 C 42.100 128.900 42.000 128.800 42.000 128.900 V 131.800 C 42.000 131.855 42.045 131.900 42.100 131.900 H 48.100 C 48.155 131.900 48.200 131.855 48.200 131.800 V 128.900 C 48.200 128.800 48.100 128.900 48.200 128.900 H 54.000 C 54.100 128.900 54.000 128.800 54.000 128.900 V 131.800 C 54.000 131.855 54.045 131.900 54.100 131.900 H 60.100 C 60.155 131.900 60.200 131.855 60.200 131.800 V 128.900 C 60.200 128.800 60.100 128.900 60.200 128.900 H 66.000 C 66.100 128.900 66.000 128.800 66.000 128.900 V 131.800 C 66.000 131.855 66.045 131.900 66.100 131.900 H 77.100 H 80.100 C 80.155 131.900 80.200 131.855 80.200 131.800 V 128.800 V 117.800 C 80.200 117.745 80.155 117.700 80.100 117.700 H 77.200 C 77.100 117.700 77.200 117.800 77.200 117.700 V 111.900 C 77.200 111.800 77.100 111.900 77.200 111.900 H 80.100 C 80.155 111.900 80.200 111.855 80.200 111.800 V 105.800 C 80.200 105.745 80.155 105.700 80.100 105.700 H 77.200 C 77.100 105.700 77.200 105.800 77.200 105.700 V 99.900 C 77.200 99.800 77.100 99.900 77.200 99.900 H 80.100 C 80.155 99.900 80.200 99.855 80.200 99.800 V 93.800 C 80.200 93.745 80.155 93.700 80.100 93.700 H 77.200 C 77.100 93.700 77.200 93.800 77.200 93.700 V 87.900 C 77.200 87.800 77.100 87.900 77.200 87.900 H 80.100 C 80.155 87.900 80.200 87.855 80.200 87.800 V 81.800 C 80.200 81.745 80.155 81.700 80.100 81.700 H 77.200 C 77.100 81.700 77.200 81.800 77.200 81.700 V 75.900 C 77.200 75.800 77.100 75.900 77.200 75.900 H 80.100 C 80.155 75.900 80.200 75.855 80.200 75.800 V 64.800 V 61.800 C 80.200 61.745 80.155 61.700 80.100 61.700 H 77.100 H 66.100 C 66.045 61.700 66.000 61.745 66.000 61.800 V 64.700 C 66.000 64.800 66.100 64.700 66.000 64.700 H 60.200 C 60.100 64.700 60.200 64.800 60.200 64.700 V 61.800 C 60.200 61.745 60.155 61.700 60.100 61.700 H 54.100 C 54.045 61.700 54.000 61.745 54.000 61.800 V 64.700 C 54.000 64.800 54.100 64.700 54.000 64.700 H 48.200 C 48.100 64.700 48.200 64.800 48.200 64.700 V 61.800 C 48.200 61.745 48.155 61.700 48.100 61.700 H 42.100 C 42.045 61.700 42.000 61.745 42.000 61.800 V 64.700 C 42.000 64.800 42.100 64.700 42.000 64.700 H 36.200 C 36.100 64.700 36.200 64.800 36.200 64.700 V 61.800 C 36.200 61.745 36.155 61.700 36.100 61.700 H 30.100 C 30.045 61.700 30.000 61.745 30.000 61.800 V 64.700 C 30.000 64.800 30.100 64.700 30.000 64.700 H 24.200 C 24.100 64.700 24.200 64.800 24.200 64.700 V 61.800 C 24.200 61.745 24.155 61.700 24.100 61.700 H 13.100 H 10.100 C 10.045 61.700 10.000 61.745 10.000 61.800 V 64.800 V 75.800 C 10.000 75.855 10.045 75.900 10.100 75.900 H 13.000 C 13.100 75.900 13.000 75.800 13.000 75.900 V 81.700 C 13.000 81.800 13.100 81.700 13.000 81.700 H 10.100 C 10.045 81.700 10.000 81.745 10.000 81.800 V 87.800 C 10.000 87.855 10.045 87.900 10.100 87.900 H 13.000 C 13.100 87.900 13.000 87.800 13.000 87.900 V 93.700 C 13.000 93.800 13.100 93.700 13.000 93.700 H 10.100 C 10.045 93.700 10.000 93.745 10.000 93.800 V 99.800 C 10.000 99.855 10.045 99.900 10.100 99.900 H 13.000 C 13.100 99.900 13.000 99.800 13.000 99.900 V 105.700 C 13.000 105.800 13.100 105.700 13.000 105.700 H 10.100 C 10.045 105.700 10.000 105.745 10.000 105.800 V 111.800 C 10.000 111.855 10.045 111.900 10.100 111.900 H 13.000 C 13.100 111.900 13.000 111.800 13.000 111.900 V 117.700 C 13.000 117.800 13.100 117.700 13.000 117.700 H 10.100 C 10.045 117.700 10.000 117.745 10.000 117.800 V 128.800 V 131.800 C 10.000 131.855 10.045 131.900 10.100 131.900 H 13.100"
       stroke="rgb(0,0,0)"
       stroke-width="0.20"
       id="path30"
       style="stroke:#ff0000;stroke-opacity:1" />
  </g>
  <g
     id="p-5"
     style="fill:none;stroke-linecap:round;stroke-linejoin:round;stroke:#ff0000;stroke-opacity:1">
    <text
       alignment-baseline="hanging"
       font-size="4px"
       style="font-family:sans-serif;font-weight:normal;font-style:normal;fill:rgb(255, 0, 0);stroke:#ff0000;stroke-opacity:1"
       text-anchor="middle"
       transform="matrix( 1.000 0.000 0.000 1.000 45.100 33.200 )"
       id="text33">Top</text>
    <path
       d="M 13.100 57.200 H 24.000 C 24.100 57.200 24.000 57.100 24.000 57.200 V 60.100 C 24.000 60.155 24.045 60.200 24.100 60.200 H 30.100 C 30.155 60.200 30.200 60.155 30.200 60.100 V 57.200 C 30.200 57.100 30.100 57.200 30.200 57.200 H 36.000 C 36.100 57.200 36.000 57.100 36.000 57.200 V 60.100 C 36.000 60.155 36.045 60.200 36.100 60.200 H 42.100 C 42.155 60.200 42.200 60.155 42.200 60.100 V 57.200 C 42.200 57.100 42.100 57.200 42.200 57.200 H 48.000 C 48.100 57.200 48.000 57.100 48.000 57.200 V 60.100 C 48.000 60.155 48.045 60.200 48.100 60.200 H 54.100 C 54.155 60.200 54.200 60.155 54.200 60.100 V 57.200 C 54.200 57.100 54.100 57.200 54.200 57.200 H 60.000 C 60.100 57.200 60.000 57.100 60.000 57.200 V 60.100 C 60.000 60.155 60.045 60.200 60.100 60.200 H 66.100 C 66.155 60.200 66.200 60.155 66.200 60.100 V 57.200 C 66.200 57.100 66.100 57.200 66.200 57.200 H 77.100 C 77.155 57.200 77.200 57.155 77.200 57.100 V 50.200 C 77.200 50.100 77.100 50.200 77.200 50.200 H 80.100 C 80.155 50.200 80.200 50.155 80.200 50.100 V 44.100 C 80.200 44.045 80.155 44.000 80.100 44.000 H 77.200 C 77.100 44.000 77.200 44.100 77.200 44.000 V 38.200 C 77.200 38.100 77.100 38.200 77.200 38.200 H 80.100 C 80.155 38.200 80.200 38.155 80.200 38.100 V 32.100 C 80.200 32.045 80.155 32.000 80.100 32.000 H 77.200 C 77.100 32.000 77.200 32.100 77.200 32.000 V 26.200 C 77.200 26.100 77.100 26.200 77.200 26.200 H 80.100 C 80.155 26.200 80.200 26.155 80.200 26.100 V 20.100 C 80.200 20.045 80.155 20.000 80.100 20.000 H 77.200 C 77.100 20.000 77.200 20.100 77.200 20.000 V 13.100 C 77.200 13.045 77.155 13.000 77.100 13.000 H 66.200 C 66.100 13.000 66.200 13.100 66.200 13.000 V 10.100 C 66.200 10.045 66.155 10.000 66.100 10.000 H 60.100 C 60.045 10.000 60.000 10.045 60.000 10.100 V 13.000 C 60.000 13.100 60.100 13.000 60.000 13.000 H 54.200 C 54.100 13.000 54.200 13.100 54.200 13.000 V 10.100 C 54.200 10.045 54.155 10.000 54.100 10.000 H 48.100 C 48.045 10.000 48.000 10.045 48.000 10.100 V 13.000 C 48.000 13.100 48.100 13.000 48.000 13.000 H 42.200 C 42.100 13.000 42.200 13.100 42.200 13.000 V 10.100 C 42.200 10.045 42.155 10.000 42.100 10.000 H 36.100 C 36.045 10.000 36.000 10.045 36.000 10.100 V 13.000 C 36.000 13.100 36.100 13.000 36.000 13.000 H 30.200 C 30.100 13.000 30.200 13.100 30.200 13.000 V 10.100 C 30.200 10.045 30.155 10.000 30.100 10.000 H 24.100 C 24.045 10.000 24.000 10.045 24.000 10.100 V 13.000 C 24.000 13.100 24.100 13.000 24.000 13.000 H 13.100 C 13.045 13.000 13.000 13.045 13.000 13.100 V 20.000 C 13.000 20.100 13.100 20.000 13.000 20.000 H 10.100 C 10.045 20.000 10.000 20.045 10.000 20.100 V 26.100 C 10.000 26.155 10.045 26.200 10.100 26.200 H 13.000 C 13.100 26.200 13.000 26.100 13.000 26.200 V 32.000 C 13.000 32.100 13.100 32.000 13.000 32.000 H 10.100 C 10.045 32.000 10.000 32.045 10.000 32.100 V 38.100 C 10.000 38.155 10.045 38.200 10.100 38.200 H 13.000 C 13.100 38.200 13.000 38.100 13.000 38.200 V 44.000 C 13.000 44.100 13.100 44.000 13.000 44.000 H 10.100 C 10.045 44.000 10.000 44.045 10.000 44.100 V 50.100 C 10.000 50.155 10.045 50.200 10.100 50.200 H 13.000 C 13.100 50.200 13.000 50.100 13.000 50.200 V 57.100 C 13.000 57.155 13.045 57.200 13.100 57.200"
       stroke="rgb(0,0,0)"
       stroke-width="0.20"
       id="path35"
       style="stroke:#ff0000;stroke-opacity:1" />
  </g>
  <g
     id="p-6"
     style="fill:none;stroke-linecap:round;stroke-linejoin:round;stroke:#ff0000;stroke-opacity:1">
    <text
       alignment-baseline="hanging"
       font-size="4px"
       style="font-family:sans-serif;font-weight:normal;font-style:normal;fill:rgb(255, 0, 0);stroke:#ff0000;stroke-opacity:1"
       text-anchor="middle"
       transform="matrix( 1.000 0.000 0.000 1.000 116.800 33.200 )"
       id="text38">Bottom</text>
    <path
       d="M 84.800 57.200 H 95.700 C 95.800 57.200 95.700 57.100 95.700 57.200 V 60.100 C 95.700 60.155 95.745 60.200 95.800 60.200 H 101.800 C 101.855 60.200 101.900 60.155 101.900 60.100 V 57.200 C 101.900 57.100 101.800 57.200 101.900 57.200 H 107.700 C 107.800 57.200 107.700 57.100 107.700 57.200 V 60.100 C 107.700 60.155 107.745 60.200 107.800 60.200 H 113.800 C 113.855 60.200 113.900 60.155 113.900 60.100 V 57.200 C 113.900 57.100 113.800 57.200 113.900 57.200 H 119.700 C 119.800 57.200 119.700 57.100 119.700 57.200 V 60.100 C 119.700 60.155 119.745 60.200 119.800 60.200 H 125.800 C 125.855 60.200 125.900 60.155 125.900 60.100 V 57.200 C 125.900 57.100 125.800 57.200 125.900 57.200 H 131.700 C 131.800 57.200 131.700 57.100 131.700 57.200 V 60.100 C 131.700 60.155 131.745 60.200 131.800 60.200 H 137.800 C 137.855 60.200 137.900 60.155 137.900 60.100 V 57.200 C 137.900 57.100 137.800 57.200 137.900 57.200 H 148.800 C 148.855 57.200 148.900 57.155 148.900 57.100 V 50.200 C 148.900 50.100 148.800 50.200 148.900 50.200 H 151.800 C 151.855 50.200 151.900 50.155 151.900 50.100 V 44.100 C 151.900 44.045 151.855 44.000 151.800 44.000 H 148.900 C 148.800 44.000 148.900 44.100 148.900 44.000 V 38.200 C 148.900 38.100 148.800 38.200 148.900 38.200 H 151.800 C 151.855 38.200 151.900 38.155 151.900 38.100 V 32.100 C 151.900 32.045 151.855 32.000 151.800 32.000 H 148.900 C 148.800 32.000 148.900 32.100 148.900 32.000 V 26.200 C 148.900 26.100 148.800 26.200 148.900 26.200 H 151.800 C 151.855 26.200 151.900 26.155 151.900 26.100 V 20.100 C 151.900 20.045 151.855 20.000 151.800 20.000 H 148.900 C 148.800 20.000 148.900 20.100 148.900 20.000 V 13.100 C 148.900 13.045 148.855 13.000 148.800 13.000 H 137.900 C 137.800 13.000 137.900 13.100 137.900 13.000 V 10.100 C 137.900 10.045 137.855 10.000 137.800 10.000 H 131.800 C 131.745 10.000 131.700 10.045 131.700 10.100 V 13.000 C 131.700 13.100 131.800 13.000 131.700 13.000 H 125.900 C 125.800 13.000 125.900 13.100 125.900 13.000 V 10.100 C 125.900 10.045 125.855 10.000 125.800 10.000 H 119.800 C 119.745 10.000 119.700 10.045 119.700 10.100 V 13.000 C 119.700 13.100 119.800 13.000 119.700 13.000 H 113.900 C 113.800 13.000 113.900 13.100 113.900 13.000 V 10.100 C 113.900 10.045 113.855 10.000 113.800 10.000 H 107.800 C 107.745 10.000 107.700 10.045 107.700 10.100 V 13.000 C 107.700 13.100 107.800 13.000 107.700 13.000 H 101.900 C 101.800 13.000 101.900 13.100 101.900 13.000 V 10.100 C 101.900 10.045 101.855 10.000 101.800 10.000 H 95.800 C 95.745 10.000 95.700 10.045 95.700 10.100 V 13.000 C 95.700 13.100 95.800 13.000 95.700 13.000 H 84.800 C 84.745 13.000 84.700 13.045 84.700 13.100 V 20.000 C 84.700 20.100 84.800 20.000 84.700 20.000 H 81.800 C 81.745 20.000 81.700 20.045 81.700 20.100 V 26.100 C 81.700 26.155 81.745 26.200 81.800 26.200 H 84.700 C 84.800 26.200 84.700 26.100 84.700 26.200 V 32.000 C 84.700 32.100 84.800 32.000 84.700 32.000 H 81.800 C 81.745 32.000 81.700 32.045 81.700 32.100 V 38.100 C 81.700 38.155 81.745 38.200 81.800 38.200 H 84.700 C 84.800 38.200 84.700 38.100 84.700 38.200 V 44.000 C 84.700 44.100 84.800 44.000 84.700 44.000 H 81.800 C 81.745 44.000 81.700 44.045 81.700 44.100 V 50.100 C 81.700 50.155 81.745 50.200 81.800 50.200 H 84.700 C 84.800 50.200 84.700 50.100 84.700 50.200 V 57.100 C 84.700 57.155 84.745 57.200 84.800 57.200"
       stroke="rgb(0,0,0)"
       stroke-width="0.20"
       id="path40"
       style="stroke:#ff0000;stroke-opacity:1" />
  </g>
  <rect
     style="stroke:#ff0000;stroke-width:0.213673;stroke-opacity:1"
     id="rect1092"
     width="14.786327"
     height="7.7863269"
     x="99.195671"
     y="61.814274" />
  <rect
     style="stroke:#ff0000;stroke-width:0.213673;stroke-opacity:1;fill:none"
     id="rect1092-3"
     width="14.786327"
     height="7.7863269"
     x="-42.274551"
     y="144.28842"
     transform="rotate(-90)" />
</svg>
